HIERARCHY
ROOT Hips
{
	OFFSET 0.000000 105.849998 0.000068
	CHANNELS 6 Xposition Yposition Zposition Yrotation Xrotation Zrotation
	JOINT RightUpLeg
	{
		OFFSET -11.500000 -1.849998 -0.000000
		CHANNELS 3 Yrotation Xrotation Zrotation
		JOINT RightLeg
		{
			OFFSET 0.000000 -48.000000 -0.000032
			CHANNELS 3 Yrotation Xrotation Zrotation
			JOINT RightFoot
			{
				OFFSET 0.000000 -48.000000 -0.000032
				CHANNELS 3 Yrotation Xrotation Zrotation
				End Site
				{
					OFFSET 0.000000 -8.000011 19.599997
				}
			}
		}
	}
	JOINT LeftUpLeg
	{
		OFFSET 11.500000 -1.849998 -0.000000
		CHANNELS 3 Yrotation Xrotation Zrotation
		JOINT LeftLeg
		{
			OFFSET 0.000000 -48.000000 -0.000032
			CHANNELS 3 Yrotation Xrotation Zrotation
			JOINT LeftFoot
			{
				OFFSET 0.000000 -48.000000 -0.000032
				CHANNELS 3 Yrotation Xrotation Zrotation
				End Site
				{
					OFFSET 0.000000 -8.000011 19.599997
				}
			}
		}
	}
	JOINT Spine
	{
		OFFSET 0.000000 16.653999 0.000012
		CHANNELS 3 Yrotation Xrotation Zrotation
		JOINT Spine1
		{
			OFFSET 0.000000 11.311996 0.000008
			CHANNELS 3 Yrotation Xrotation Zrotation
			JOINT Spine2
			{
				OFFSET 0.000000 11.779999 0.000008
				CHANNELS 3 Yrotation Xrotation Zrotation
				JOINT Spine3
				{
					OFFSET 0.000000 11.311996 0.000008
					CHANNELS 3 Yrotation Xrotation Zrotation
					JOINT Neck
					{
						OFFSET 0.000000 12.091003 0.000008
						CHANNELS 3 Yrotation Xrotation Zrotation
						JOINT Head
						{
							OFFSET 0.000000 9.000000 0.000004
							CHANNELS 3 Yrotation Xrotation Zrotation
							End Site
							{
								OFFSET 0.000000 18.000000 0.000012
							}
						}
					}
					JOINT RightShoulder
					{
						OFFSET -3.500000 8.061005 0.000004
						CHANNELS 3 Yrotation Xrotation Zrotation
						JOINT RightArm
						{
							OFFSET -14.000000 0.000000 0.000000
							CHANNELS 3 Yrotation Xrotation Zrotation
							JOINT RightForeArm
							{
								OFFSET -29.000000 0.000000 0.000000
								CHANNELS 3 Yrotation Xrotation Zrotation
								JOINT RightHand
								{
									OFFSET -28.000000 0.000000 0.000000
									CHANNELS 3 Yrotation Xrotation Zrotation
									JOINT RightHandThumb1
									{
										OFFSET -2.702003 0.205994 3.388000
										CHANNELS 3 Yrotation Xrotation Zrotation
										JOINT RightHandThumb2
										{
											OFFSET -3.998001 0.000000 0.000000
											CHANNELS 3 Yrotation Xrotation Zrotation
											JOINT RightHandThumb3
											{
												OFFSET -2.778000 0.000000 0.000000
												CHANNELS 3 Yrotation Xrotation Zrotation
												End Site
												{
													OFFSET -2.381996 0.000000 0.000000
												}
											}
										}
									}
									JOINT RightInHandIndex
									{
										OFFSET -3.500000 0.552002 2.148000
										CHANNELS 3 Yrotation Xrotation Zrotation
										JOINT RightHandIndex1
										{
											OFFSET -5.664001 -0.098999 1.085000
											CHANNELS 3 Yrotation Xrotation Zrotation
											JOINT RightHandIndex2
											{
												OFFSET -3.930000 0.000000 0.000000
												CHANNELS 3 Yrotation Xrotation Zrotation
												JOINT RightHandIndex3
												{
													OFFSET -2.227997 0.000000 0.000000
													CHANNELS 3 Yrotation Xrotation Zrotation
													End Site
													{
														OFFSET -1.959999 0.000000 0.000000
													}
												}
											}
										}
									}
									JOINT RightInHandMiddle
									{
										OFFSET -3.671997 0.561996 0.822000
										CHANNELS 3 Yrotation Xrotation Zrotation
										JOINT RightHandMiddle1
										{
											OFFSET -5.617996 -0.091003 0.341000
											CHANNELS 3 Yrotation Xrotation Zrotation
											JOINT RightHandMiddle2
											{
												OFFSET -4.288002 0.000000 0.000000
												CHANNELS 3 Yrotation Xrotation Zrotation
												JOINT RightHandMiddle3
												{
													OFFSET -2.688004 0.000000 0.000000
													CHANNELS 3 Yrotation Xrotation Zrotation
													End Site
													{
														OFFSET -2.143997 0.000000 0.000000
													}
												}
											}
										}
									}
									JOINT RightInHandRing
									{
										OFFSET -3.653999 0.584000 -0.140000
										CHANNELS 3 Yrotation Xrotation Zrotation
										JOINT RightHandRing1
										{
											OFFSET -5.031998 -0.024002 -0.520000
											CHANNELS 3 Yrotation Xrotation Zrotation
											JOINT RightHandRing2
											{
												OFFSET -3.737000 0.000000 0.000000
												CHANNELS 3 Yrotation Xrotation Zrotation
												JOINT RightHandRing3
												{
													OFFSET -2.593002 0.000000 0.000000
													CHANNELS 3 Yrotation Xrotation Zrotation
													End Site
													{
														OFFSET -2.015999 0.000000 0.000000
													}
												}
											}
										}
									}
									JOINT RightInHandPinky
									{
										OFFSET -3.431999 0.509995 -1.305000
										CHANNELS 3 Yrotation Xrotation Zrotation
										JOINT RightHandPinky1
										{
											OFFSET -4.496002 -0.024002 -1.184000
											CHANNELS 3 Yrotation Xrotation Zrotation
											JOINT RightHandPinky2
											{
												OFFSET -2.993004 0.000000 0.000000
												CHANNELS 3 Yrotation Xrotation Zrotation
												JOINT RightHandPinky3
												{
													OFFSET -1.890999 0.000000 0.000000
													CHANNELS 3 Yrotation Xrotation Zrotation
													End Site
													{
														OFFSET -1.786003 0.000000 0.000000
													}
												}
											}
										}
									}
								}
							}
						}
					}
					JOINT LeftShoulder
					{
						OFFSET 3.500000 8.061005 0.000004
						CHANNELS 3 Yrotation Xrotation Zrotation
						JOINT LeftArm
						{
							OFFSET 14.000000 0.000000 0.000000
							CHANNELS 3 Yrotation Xrotation Zrotation
							JOINT LeftForeArm
							{
								OFFSET 29.000000 0.000000 0.000000
								CHANNELS 3 Yrotation Xrotation Zrotation
								JOINT LeftHand
								{
									OFFSET 28.000000 0.000000 0.000000
									CHANNELS 3 Yrotation Xrotation Zrotation
									JOINT LeftHandThumb1
									{
										OFFSET 2.702003 0.205994 3.388000
										CHANNELS 3 Yrotation Xrotation Zrotation
										JOINT LeftHandThumb2
										{
											OFFSET 3.998001 0.000000 0.000000
											CHANNELS 3 Yrotation Xrotation Zrotation
											JOINT LeftHandThumb3
											{
												OFFSET 2.778000 0.000000 0.000000
												CHANNELS 3 Yrotation Xrotation Zrotation
												End Site
												{
													OFFSET 2.381996 0.000000 0.000000
												}
											}
										}
									}
									JOINT LeftInHandIndex
									{
										OFFSET 3.500000 0.552002 2.148000
										CHANNELS 3 Yrotation Xrotation Zrotation
										JOINT LeftHandIndex1
										{
											OFFSET 5.664001 -0.098999 1.085000
											CHANNELS 3 Yrotation Xrotation Zrotation
											JOINT LeftHandIndex2
											{
												OFFSET 3.930000 0.000000 0.000000
												CHANNELS 3 Yrotation Xrotation Zrotation
												JOINT LeftHandIndex3
												{
													OFFSET 2.227997 0.000000 0.000000
													CHANNELS 3 Yrotation Xrotation Zrotation
													End Site
													{
														OFFSET 1.959999 0.000000 0.000000
													}
												}
											}
										}
									}
									JOINT LeftInHandMiddle
									{
										OFFSET 3.671997 0.561996 0.822000
										CHANNELS 3 Yrotation Xrotation Zrotation
										JOINT LeftHandMiddle1
										{
											OFFSET 5.617996 -0.091003 0.341000
											CHANNELS 3 Yrotation Xrotation Zrotation
											JOINT LeftHandMiddle2
											{
												OFFSET 4.288002 0.000000 0.000000
												CHANNELS 3 Yrotation Xrotation Zrotation
												JOINT LeftHandMiddle3
												{
													OFFSET 2.688004 0.000000 0.000000
													CHANNELS 3 Yrotation Xrotation Zrotation
													End Site
													{
														OFFSET 2.143997 0.000000 0.000000
													}
												}
											}
										}
									}
									JOINT LeftInHandRing
									{
										OFFSET 3.653999 0.584000 -0.140000
										CHANNELS 3 Yrotation Xrotation Zrotation
										JOINT LeftHandRing1
										{
											OFFSET 5.031998 -0.024002 -0.520000
											CHANNELS 3 Yrotation Xrotation Zrotation
											JOINT LeftHandRing2
											{
												OFFSET 3.737000 0.000000 0.000000
												CHANNELS 3 Yrotation Xrotation Zrotation
												JOINT LeftHandRing3
												{
													OFFSET 2.593002 0.000000 0.000000
													CHANNELS 3 Yrotation Xrotation Zrotation
													End Site
													{
														OFFSET 2.015999 0.000000 0.000000
													}
												}
											}
										}
									}
									JOINT LeftInHandPinky
									{
										OFFSET 3.431999 0.509995 -1.305000
										CHANNELS 3 Yrotation Xrotation Zrotation
										JOINT LeftHandPinky1
										{
											OFFSET 4.496002 -0.024002 -1.184000
											CHANNELS 3 Yrotation Xrotation Zrotation
											JOINT LeftHandPinky2
											{
												OFFSET 2.993004 0.000000 0.000000
												CHANNELS 3 Yrotation Xrotation Zrotation
												JOINT LeftHandPinky3
												{
													OFFSET 1.890999 0.000000 0.000000
													CHANNELS 3 Yrotation Xrotation Zrotation
													End Site
													{
														OFFSET 1.786003 0.000000 0.000000
													}
												}
											}
										}
									}
								}
							}
						}
					}
				}
			}
		}
	}
}
MOTION
Frames: 4
Frame Time: 0.041667
0.000000 50.759930 -0.000022 6.547561 2.668566 0.000158 -11.004917 -25.261248 5.598758 -0.542752 9.348365 -0.310632 4.980924 -16.749314 -3.942702 -4.056263 11.789467 -2.543622 0.646824 11.019937 0.376587 -2.495402 -2.809663 3.489870 -5.113251 0.015074 0.237492 0.000000 -0.000000 0.000000 0.000000 -0.000000 0.000000 0.000000 0.000001 0.000000 -1.070048 0.000435 0.047859 0.000021 -3.131919 -0.000001 -3.086914 8.305560 30.434128 6.113152 6.351613 57.226661 -0.167675 15.321675 20.074406 -0.000041 -0.000023 -0.000078 -0.000004 0.000000 0.000000 0.000001 0.000002 0.000001 0.000004 0.000004 0.000003 0.000002 -0.000007 -0.000007 0.000002 0.000002 -0.000003 0.000005 -0.000003 0.000004 -0.000011 0.000002 0.000013 0.000001 -0.000002 -0.000008 -0.000001 -0.000008 -0.000011 0.000004 0.000000 -0.000012 -0.000002 0.000000 0.000003 -0.000005 -0.000005 0.000006 -0.000004 -0.000017 0.000007 -0.000000 -0.000009 -0.000010 0.000002 0.000000 -0.000006 0.000000 0.000002 0.000008 0.000001 0.000003 -0.000003 -0.000008 0.000003 -0.000002 -0.000001 -0.000006 -0.000006 -3.125031 -8.366136 -29.793241 -6.113150 6.351614 -57.226668 -16.871069 -18.649545 -8.194425 -11.754689 -3.820421 -3.897268 0.000000 0.000009 -0.000003 -0.000002 0.000002 -0.000001 -0.000002 -0.000001 -0.000000 0.000001 0.000002 0.000002 0.000004 -0.000002 0.000005 0.000015 -0.000005 0.000008 -0.000005 -0.000002 -0.000002 -0.000001 0.000005 -0.000005 0.000001 -0.000002 0.000004 -0.000006 -0.000001 0.000001 -0.000002 0.000001 -0.000002 0.000005 0.000004 0.000000 0.000000 -0.000001 -0.000006 -0.000007 -0.000000 -0.000000 -0.000004 -0.000003 -0.000003 -0.000000 0.000002 -0.000010 -0.000000 0.000000 -0.000002 -0.000002 -0.000003 0.000001 0.000001 -0.000007 -0.000001 
-0.000000 50.210773 -0.000022 6.255795 2.666894 -0.000013 -10.768466 -29.294265 5.710736 -1.196152 19.179776 -0.752374 3.447193 3.053267 -3.951976 -3.806575 9.913976 -2.605856 1.180898 18.963073 0.741306 -2.341191 -1.136225 3.540783 -4.885152 0.014640 0.227849 -0.000000 0.000000 -0.000000 -0.000000 0.000000 0.000000 -0.000000 0.000000 -0.000000 -1.022552 0.000391 0.047633 0.000025 -3.131920 -0.000000 -2.952316 7.934253 30.409143 5.826175 6.001721 57.194143 0.131977 14.518959 20.133306 -0.799994 2.917465 0.069490 0.000001 0.000003 0.000009 -0.000000 0.000005 0.000003 -0.000006 0.000007 -0.000004 -0.000001 -0.000001 -0.000009 -0.000002 -0.000002 -0.000005 0.000002 -0.000004 0.000002 -0.000012 0.000008 0.000012 0.000001 0.000001 0.000002 0.000009 -0.000010 -0.000002 0.000002 0.000004 -0.000007 -0.000003 0.000002 0.000009 0.000000 -0.000002 0.000007 -0.000004 -0.000004 0.000009 0.000002 -0.000009 -0.000007 0.000003 0.000003 -0.000005 -0.000001 0.000008 0.000007 0.000001 -0.000002 -0.000007 -0.000000 0.000005 -0.000000 -0.000003 -0.000000 -0.000005 -2.983811 -7.995016 -29.798292 -6.113153 6.351615 -57.226665 -16.399339 -17.923212 -8.360681 -12.750995 -6.500693 -2.409085 0.000004 -0.000001 -0.000004 0.000006 0.000004 -0.000001 0.000001 0.000004 -0.000000 0.000006 -0.000010 -0.000000 -0.000010 -0.000003 -0.000001 -0.000002 -0.000004 0.000003 -0.000003 0.000003 0.000001 0.000012 -0.000003 -0.000011 0.000002 -0.000005 -0.000001 -0.000007 -0.000001 0.000001 -0.000001 -0.000001 -0.000000 0.000007 -0.000005 -0.000001 0.000002 0.000003 -0.000002 0.000001 -0.000000 -0.000001 -0.000007 -0.000004 0.000000 0.000003 -0.000004 -0.000014 -0.000003 -0.000004 0.000001 0.000001 0.000000 0.000004 -0.000008 -0.000006 -0.000002 
-0.000000 49.628925 -0.000024 5.360890 2.665834 -0.000061 -9.651435 -31.364919 5.582559 -1.994574 29.105550 -1.362947 3.328072 -0.188809 -4.061386 -2.963943 7.598498 -2.733299 1.862830 27.585314 1.257305 -1.989750 3.283997 3.615102 -4.185954 0.010751 0.194568 0.000000 -0.000000 -0.000000 0.000000 0.000000 -0.000000 0.000000 0.000000 -0.000000 -0.876683 0.000166 0.040842 0.000029 -3.131918 -0.000001 -2.537812 6.795256 30.337545 4.947536 4.926730 57.105508 1.043622 12.044609 20.286507 -1.610559 7.790858 0.261853 -0.000000 -0.000001 0.000006 -0.000002 -0.000002 0.000004 0.000001 0.000009 -0.000007 -0.000002 -0.000010 -0.000005 -0.000001 0.000008 -0.000003 0.000003 -0.000007 0.000002 -0.000007 0.000001 0.000012 0.000004 -0.000004 -0.000000 0.000008 -0.000010 -0.000003 0.000001 -0.000009 -0.000013 -0.000002 0.000003 0.000000 -0.000005 -0.000005 0.000013 -0.000001 -0.000015 0.000004 0.000003 -0.000009 -0.000004 0.000002 -0.000008 -0.000003 0.000001 0.000004 -0.000001 0.000001 0.000004 -0.000000 -0.000004 0.000005 -0.000003 0.000001 0.000004 -0.000006 -2.551368 -6.856355 -29.814694 -6.113151 6.351619 -57.226665 -14.971116 -15.678105 -8.829917 -14.218032 -10.780091 0.675966 -0.000002 0.000001 -0.000006 -0.000001 0.000002 -0.000003 -0.000004 -0.000002 -0.000001 -0.000004 -0.000005 -0.000000 -0.000016 -0.000002 -0.000002 0.000002 -0.000002 0.000006 -0.000002 0.000002 0.000002 0.000005 -0.000002 -0.000009 0.000002 -0.000005 -0.000001 0.000004 -0.000000 0.000001 -0.000006 0.000001 -0.000002 0.000006 0.000003 -0.000004 0.000002 0.000002 0.000002 -0.000002 -0.000001 0.000002 0.000000 0.000002 -0.000003 -0.000005 0.000002 -0.000010 -0.000003 -0.000002 -0.000003 0.000002 0.000001 0.000003 -0.000001 -0.000005 -0.000001 
-0.000000 49.406574 -0.000024 4.235052 2.664745 -0.000087 -8.139405 -30.121828 5.261438 -2.503774 34.314887 -1.779103 3.494148 -6.684167 -4.092393 -1.879938 5.555138 -2.880471 2.442441 33.715805 1.727962 -1.464972 10.234779 3.723921 -3.306520 0.006336 0.153842 -0.000000 0.000000 0.000000 -0.000000 0.000000 0.000000 -0.000000 0.000000 0.000000 -0.692916 -0.000067 0.032283 0.000032 -3.131918 -0.000001 -2.013710 5.362013 30.253175 3.844988 3.571090 57.017518 2.177978 8.908976 20.421612 -1.457539 10.166553 0.605642 0.000002 0.000009 0.000001 -0.000003 0.000001 0.000004 -0.000002 0.000009 -0.000005 -0.000002 -0.000006 -0.000007 -0.000001 0.000000 -0.000003 -0.000002 -0.000009 0.000009 -0.000011 -0.000004 0.000007 0.000003 -0.000003 -0.000001 0.000009 -0.000011 -0.000008 0.000001 0.000000 -0.000012 -0.000006 0.000001 0.000004 -0.000008 -0.000003 0.000015 -0.000003 -0.000004 0.000012 0.000004 -0.000005 0.000003 0.000001 -0.000004 -0.000004 0.000000 0.000007 0.000008 -0.000006 -0.000001 -0.000006 0.000001 0.000002 0.000004 -0.000004 0.000001 -0.000007 -2.008581 -5.423506 -29.841407 -6.113150 6.351617 -57.226675 -13.210189 -12.820877 -9.334749 -14.523759 -12.845047 2.052841 0.000005 0.000004 -0.000003 0.000001 0.000001 -0.000001 0.000003 -0.000006 -0.000002 0.000001 0.000001 0.000004 0.000002 -0.000002 -0.000006 -0.000000 -0.000004 0.000005 -0.000000 -0.000002 0.000001 0.000007 0.000006 -0.000003 -0.000008 -0.000009 -0.000002 0.000004 -0.000004 -0.000001 0.000001 -0.000004 -0.000002 -0.000002 0.000004 -0.000003 0.000001 0.000002 -0.000000 0.000001 -0.000000 0.000001 0.000003 -0.000002 -0.000006 -0.000002 0.000006 -0.000002 0.000004 -0.000005 -0.000000 0.000001 -0.000001 0.000003 0.000002 -0.000012 -0.000005 
